{
    "asset" : {
        "generator" : "Khronos glTF Blender I/O v3.2.43",
        "version" : "2.0"
    },
    "scene" : 0,
    "scenes" : [
        {
            "extras" : {
                "MM" : {
                    "revision" : "9cc8f25fa43725a2b85459340e2086a68b537f53"
                },
                "DM" : {
                    "revision" : "b62fce83f7d54c3b35499c7ad13ed5af80fde762",
                    "export_atlas_texture_channel_packCOL" : [
                        {
                            "avoid_update" : 0,
                            "name" : "ao_curv_height",
                            "red" : 2,
                            "green" : 3,
                            "blue" : 4
                        },
                        {
                            "avoid_update" : 0,
                            "name" : "masks",
                            "red" : 1,
                            "green" : 9,
                            "blue" : 10
                        }
                    ]
                },
                "bc" : {
                    "snap" : {
                        "hit" : 0
                    }
                },
                "C_Slots_settings" : {
                    "Terrain_pointer" : {}
                },
                "automirror" : {
                    "orientation" : 2,
                    "axis" : 2
                }
            },
            "name" : "Scene",
            "nodes" : [
                0,
                1,
                2,
                3,
                4,
                5,
                6,
                7,
                8,
                9,
                10,
                11,
                12,
                13,
                14,
                15,
                16,
                17,
                18
            ]
        }
    ],
    "nodes" : [
        {
            "extras" : {
                "MM" : {},
                "DM" : {}
            },
            "mesh" : 0,
            "name" : "Paper",
            "scale" : [
                1.0406321287155151,
                1,
                1
            ],
            "translation" : [
                -3.069226026535034,
                0.015311124734580517,
                126.53032684326172
            ]
        },
        {
            "extras" : {
                "MM" : {},
                "DM" : {}
            },
            "mesh" : 1,
            "name" : "Text",
            "rotation" : [
                0,
                -1,
                0,
                1.6292068494294654e-07
            ],
            "scale" : [
                0.3131156265735626,
                0.3131156265735626,
                0.3131156265735626
            ],
            "translation" : [
                -2.463679075241089,
                0.03174788877367973,
                126.43660736083984
            ]
        },
        {
            "extras" : {
                "MM" : {},
                "DM" : {}
            },
            "name" : "Elevator Placeholder Main",
            "scale" : [
                1.2999999523162842,
                1.7000000476837158,
                1.5
            ],
            "translation" : [
                0,
                1.7000000476837158,
                0
            ]
        },
        {
            "extras" : {
                "MM" : {},
                "DM" : {}
            },
            "name" : "Elevator Placeholder Opening",
            "scale" : [
                0.550000011920929,
                1.2000000476837158,
                0.6000000238418579
            ],
            "translation" : [
                0,
                1.2000000476837158,
                0.8999999761581421
            ]
        },
        {
            "extras" : {
                "MM" : {},
                "DM" : {}
            },
            "mesh" : 2,
            "name" : "Baked Chairs",
            "rotation" : [
                0.4067225456237793,
                0.008551258593797684,
                -0.9134461283683777,
                0.010946148075163364
            ],
            "translation" : [
                0.5436278581619263,
                0.2743058204650879,
                86.47056579589844
            ]
        },
        {
            "extras" : {
                "MM" : {},
                "DM" : {}
            },
            "mesh" : 3,
            "name" : "COLLIDER Floor",
            "translation" : [
                0.05058872699737549,
                -1.855257511138916,
                29.831344604492188
            ]
        },
        {
            "extras" : {
                "MM" : {},
                "DM" : {}
            },
            "mesh" : 4,
            "name" : "Plane",
            "rotation" : [
                0.7071068286895752,
                0,
                0,
                0.7071068286895752
            ],
            "translation" : [
                1.3825409412384033,
                -16.435997009277344,
                215.9423065185547
            ]
        },
        {
            "extras" : {
                "MM" : {},
                "DM" : {}
            },
            "name" : "BLOCK.003",
            "rotation" : [
                0,
                0.7071068286895752,
                0,
                0.7071068286895752
            ],
            "scale" : [
                1.236153244972229,
                5.555863857269287,
                15.905345916748047
            ],
            "translation" : [
                -0.5821338891983032,
                1.787130355834961,
                130.3733673095703
            ]
        },
        {
            "extras" : {
                "MM" : {},
                "DM" : {}
            },
            "name" : "BLOCK.005",
            "scale" : [
                1.236153244972229,
                5.555863857269287,
                15.905345916748047
            ],
            "translation" : [
                14.44287109375,
                1.8082008361816406,
                121.74104309082031
            ]
        },
        {
            "extras" : {
                "MM" : {},
                "DM" : {}
            },
            "name" : "BLOCK.007",
            "scale" : [
                1.236153244972229,
                5.555863857269287,
                15.905345916748047
            ],
            "translation" : [
                14.44287109375,
                0.9347553253173828,
                60.1939582824707
            ]
        },
        {
            "extras" : {
                "MM" : {},
                "DM" : {}
            },
            "name" : "BLOCK.008",
            "scale" : [
                1.236153244972229,
                5.555863857269287,
                15.905345916748047
            ],
            "translation" : [
                14.44287109375,
                0.9347553253173828,
                29.10532569885254
            ]
        },
        {
            "extras" : {
                "MM" : {},
                "DM" : {}
            },
            "name" : "BLOCK.009",
            "scale" : [
                1.236153244972229,
                5.555863857269287,
                15.905345916748047
            ],
            "translation" : [
                14.44287109375,
                0.9347553253173828,
                2.2178611755371094
            ]
        },
        {
            "extras" : {
                "MM" : {},
                "DM" : {}
            },
            "name" : "BLOCK.010",
            "rotation" : [
                0,
                -0.7071068286895752,
                0,
                0.7071068286895752
            ],
            "scale" : [
                1.236153244972229,
                5.555863857269287,
                15.905345916748047
            ],
            "translation" : [
                -0.4712705612182617,
                0.9347553253173828,
                -10.175580024719238
            ]
        },
        {
            "extras" : {
                "MM" : {},
                "DM" : {}
            },
            "name" : "BLOCK.016",
            "scale" : [
                1.236153244972229,
                5.555863857269287,
                15.905345916748047
            ],
            "translation" : [
                -14.398183822631836,
                0.9347553253173828,
                60.919921875
            ]
        },
        {
            "extras" : {
                "MM" : {},
                "DM" : {}
            },
            "name" : "BLOCK.017",
            "scale" : [
                1.236153244972229,
                5.555863857269287,
                15.905345916748047
            ],
            "translation" : [
                -14.595602035522461,
                0.9347553253173828,
                29.831287384033203
            ]
        },
        {
            "extras" : {
                "MM" : {},
                "DM" : {}
            },
            "name" : "BLOCK.018",
            "scale" : [
                1.236153244972229,
                5.555863857269287,
                15.905345916748047
            ],
            "translation" : [
                -14.595602035522461,
                0.9347553253173828,
                2.9438228607177734
            ]
        },
        {
            "extras" : {
                "MM" : {},
                "DM" : {}
            },
            "name" : "BLOCK.019",
            "scale" : [
                1.236153244972229,
                5.555863857269287,
                15.905345916748047
            ],
            "translation" : [
                14.48306655883789,
                1.3272590637207031,
                91.85491180419922
            ]
        },
        {
            "extras" : {
                "MM" : {},
                "DM" : {}
            },
            "name" : "BLOCK.006",
            "scale" : [
                1.236153244972229,
                5.555863857269287,
                15.905345916748047
            ],
            "translation" : [
                -14.398183822631836,
                0.9347553253173828,
                91.71715545654297
            ]
        },
        {
            "extras" : {
                "MM" : {},
                "DM" : {}
            },
            "name" : "BLOCK.014",
            "scale" : [
                1.236153244972229,
                5.555863857269287,
                15.905345916748047
            ],
            "translation" : [
                -14.496892929077148,
                0.9347553253173828,
                114.91378784179688
            ]
        }
    ],
    "materials" : [
        {
            "doubleSided" : true,
            "extras" : {
                "DM" : {}
            },
            "name" : "Material.001",
            "pbrMetallicRoughness" : {
                "metallicFactor" : 0,
                "roughnessFactor" : 0.5
            }
        },
        {
            "doubleSided" : true,
            "name" : "Material.002",
            "pbrMetallicRoughness" : {
                "baseColorFactor" : [
                    0,
                    0,
                    0,
                    1
                ],
                "metallicFactor" : 0,
                "roughnessFactor" : 0.5
            }
        },
        {
            "doubleSided" : true,
            "emissiveFactor" : [
                1,
                1,
                1
            ],
            "extras" : {
                "DM" : {}
            },
            "name" : "Dining Chair.001",
            "pbrMetallicRoughness" : {
                "baseColorFactor" : [
                    0,
                    0,
                    0,
                    1
                ]
            }
        },
        {
            "doubleSided" : true,
            "emissiveFactor" : [
                1,
                1,
                1
            ],
            "emissiveTexture" : {
                "index" : 0
            },
            "extras" : {
                "DM" : {}
            },
            "name" : "COLLIDER Floor",
            "pbrMetallicRoughness" : {
                "baseColorFactor" : [
                    0,
                    0,
                    0,
                    1
                ]
            }
        },
        {
            "doubleSided" : true,
            "emissiveFactor" : [
                1,
                1,
                1
            ],
            "extras" : {
                "DM" : {}
            },
            "name" : "Material",
            "pbrMetallicRoughness" : {
                "baseColorFactor" : [
                    0.800000011920929,
                    0.800000011920929,
                    0.800000011920929,
                    1
                ],
                "metallicFactor" : 0,
                "roughnessFactor" : 0.5
            }
        }
    ],
    "meshes" : [
        {
            "name" : "Plane.002",
            "primitives" : [
                {
                    "attributes" : {
                        "POSITION" : 0,
                        "NORMAL" : 1,
                        "TEXCOORD_0" : 2
                    },
                    "indices" : 3,
                    "material" : 0
                }
            ]
        },
        {
            "name" : "Text.001",
            "primitives" : [
                {
                    "attributes" : {
                        "POSITION" : 4,
                        "NORMAL" : 5,
                        "TEXCOORD_0" : 6
                    },
                    "indices" : 7,
                    "material" : 1
                }
            ]
        },
        {
            "name" : "Cube.025",
            "primitives" : [
                {
                    "attributes" : {
                        "POSITION" : 8,
                        "NORMAL" : 9,
                        "TEXCOORD_0" : 10,
                        "COLOR_0" : 11
                    },
                    "indices" : 12,
                    "material" : 2
                }
            ]
        },
        {
            "name" : "Cube.018",
            "primitives" : [
                {
                    "attributes" : {
                        "POSITION" : 13,
                        "NORMAL" : 14,
                        "TEXCOORD_0" : 15
                    },
                    "indices" : 16,
                    "material" : 3
                }
            ]
        },
        {
            "name" : "Plane",
            "primitives" : [
                {
                    "attributes" : {
                        "POSITION" : 17,
                        "NORMAL" : 18,
                        "TEXCOORD_0" : 19
                    },
                    "indices" : 20,
                    "material" : 4
                }
            ]
        }
    ],
    "textures" : [
        {
            "sampler" : 0,
            "source" : 0
        }
    ],
    "images" : [
        {
            "mimeType" : "image/png",
            "name" : "ARCH TEX JOIN UNWRAP Chairs Pile Cave Floor_COMBINED_bake",
            "uri" : "ARCH%20TEX%20JOIN%20UNWRAP%20Chairs%20Pile%20Cave%20Floor_COMBINED_bake.png"
        }
    ],
    "accessors" : [
        {
            "bufferView" : 0,
            "componentType" : 5126,
            "count" : 561,
            "max" : [
                0.7057157158851624,
                0.016521109268069267,
                0.5236678123474121
            ],
            "min" : [
                -0.7178952693939209,
                -0.016305595636367798,
                -0.5279324650764465
            ],
            "type" : "VEC3"
        },
        {
            "bufferView" : 1,
            "componentType" : 5126,
            "count" : 561,
            "type" : "VEC3"
        },
        {
            "bufferView" : 2,
            "componentType" : 5126,
            "count" : 561,
            "type" : "VEC2"
        },
        {
            "bufferView" : 3,
            "componentType" : 5123,
            "count" : 3072,
            "type" : "SCALAR"
        },
        {
            "bufferView" : 4,
            "componentType" : 5126,
            "count" : 566,
            "max" : [
                3.7890000343322754,
                0,
                0.009000000543892384
            ],
            "min" : [
                0.05000000074505806,
                0,
                -0.6910000443458557
            ],
            "type" : "VEC3"
        },
        {
            "bufferView" : 5,
            "componentType" : 5126,
            "count" : 566,
            "type" : "VEC3"
        },
        {
            "bufferView" : 6,
            "componentType" : 5126,
            "count" : 566,
            "type" : "VEC2"
        },
        {
            "bufferView" : 7,
            "componentType" : 5123,
            "count" : 1224,
            "type" : "SCALAR"
        },
        {
            "bufferView" : 8,
            "componentType" : 5126,
            "count" : 359736,
            "max" : [
                33.9345703125,
                3.03820538520813,
                48.34961700439453
            ],
            "min" : [
                -62.459266662597656,
                -4.282546520233154,
                -27.409542083740234
            ],
            "type" : "VEC3"
        },
        {
            "bufferView" : 9,
            "componentType" : 5126,
            "count" : 359736,
            "type" : "VEC3"
        },
        {
            "bufferView" : 10,
            "componentType" : 5126,
            "count" : 359736,
            "type" : "VEC2"
        },
        {
            "bufferView" : 11,
            "componentType" : 5123,
            "count" : 359736,
            "normalized" : true,
            "type" : "VEC4"
        },
        {
            "bufferView" : 12,
            "componentType" : 5125,
            "count" : 551796,
            "type" : "SCALAR"
        },
        {
            "bufferView" : 13,
            "componentType" : 5126,
            "count" : 28,
            "max" : [
                13.317435264587402,
                200.97555541992188,
                118.51815032958984
            ],
            "min" : [
                -13.317435264587402,
                -1.8403135538101196,
                -39.525550842285156
            ],
            "type" : "VEC3"
        },
        {
            "bufferView" : 14,
            "componentType" : 5126,
            "count" : 28,
            "type" : "VEC3"
        },
        {
            "bufferView" : 15,
            "componentType" : 5126,
            "count" : 28,
            "type" : "VEC2"
        },
        {
            "bufferView" : 16,
            "componentType" : 5123,
            "count" : 42,
            "type" : "SCALAR"
        },
        {
            "bufferView" : 17,
            "componentType" : 5126,
            "count" : 4,
            "max" : [
                2.5966930389404297,
                0,
                91.32941436767578
            ],
            "min" : [
                -2.5966930389404297,
                0,
                -91.32941436767578
            ],
            "type" : "VEC3"
        },
        {
            "bufferView" : 18,
            "componentType" : 5126,
            "count" : 4,
            "type" : "VEC3"
        },
        {
            "bufferView" : 19,
            "componentType" : 5126,
            "count" : 4,
            "type" : "VEC2"
        },
        {
            "bufferView" : 20,
            "componentType" : 5123,
            "count" : 6,
            "type" : "SCALAR"
        }
    ],
    "bufferViews" : [
        {
            "buffer" : 0,
            "byteLength" : 6732,
            "byteOffset" : 0
        },
        {
            "buffer" : 0,
            "byteLength" : 6732,
            "byteOffset" : 6732
        },
        {
            "buffer" : 0,
            "byteLength" : 4488,
            "byteOffset" : 13464
        },
        {
            "buffer" : 0,
            "byteLength" : 6144,
            "byteOffset" : 17952
        },
        {
            "buffer" : 0,
            "byteLength" : 6792,
            "byteOffset" : 24096
        },
        {
            "buffer" : 0,
            "byteLength" : 6792,
            "byteOffset" : 30888
        },
        {
            "buffer" : 0,
            "byteLength" : 4528,
            "byteOffset" : 37680
        },
        {
            "buffer" : 0,
            "byteLength" : 2448,
            "byteOffset" : 42208
        },
        {
            "buffer" : 0,
            "byteLength" : 4316832,
            "byteOffset" : 44656
        },
        {
            "buffer" : 0,
            "byteLength" : 4316832,
            "byteOffset" : 4361488
        },
        {
            "buffer" : 0,
            "byteLength" : 2877888,
            "byteOffset" : 8678320
        },
        {
            "buffer" : 0,
            "byteLength" : 2877888,
            "byteOffset" : 11556208
        },
        {
            "buffer" : 0,
            "byteLength" : 2207184,
            "byteOffset" : 14434096
        },
        {
            "buffer" : 0,
            "byteLength" : 336,
            "byteOffset" : 16641280
        },
        {
            "buffer" : 0,
            "byteLength" : 336,
            "byteOffset" : 16641616
        },
        {
            "buffer" : 0,
            "byteLength" : 224,
            "byteOffset" : 16641952
        },
        {
            "buffer" : 0,
            "byteLength" : 84,
            "byteOffset" : 16642176
        },
        {
            "buffer" : 0,
            "byteLength" : 48,
            "byteOffset" : 16642260
        },
        {
            "buffer" : 0,
            "byteLength" : 48,
            "byteOffset" : 16642308
        },
        {
            "buffer" : 0,
            "byteLength" : 32,
            "byteOffset" : 16642356
        },
        {
            "buffer" : 0,
            "byteLength" : 12,
            "byteOffset" : 16642388
        }
    ],
    "samplers" : [
        {
            "magFilter" : 9729,
            "minFilter" : 9987
        }
    ],
    "buffers" : [
        {
            "byteLength" : 16642400,
            "uri" : "Level 4 Chairs Pile Export.bin"
        }
    ]
}
