{
    "asset" : {
        "generator" : "Khronos glTF Blender I/O v3.2.43",
        "version" : "2.0"
    },
    "scene" : 0,
    "scenes" : [
        {
            "extras" : {
                "MM" : {
                    "revision" : "9cc8f25fa43725a2b85459340e2086a68b537f53"
                },
                "DM" : {
                    "revision" : "b62fce83f7d54c3b35499c7ad13ed5af80fde762",
                    "export_atlas_texture_channel_packCOL" : [
                        {
                            "avoid_update" : 0,
                            "name" : "ao_curv_height",
                            "red" : 2,
                            "green" : 3,
                            "blue" : 4
                        },
                        {
                            "avoid_update" : 0,
                            "name" : "masks",
                            "red" : 1,
                            "green" : 9,
                            "blue" : 10
                        }
                    ]
                },
                "bc" : {
                    "snap" : {
                        "hit" : 0
                    }
                },
                "C_Slots_settings" : {
                    "Terrain_pointer" : {}
                },
                "automirror" : {
                    "orientation" : 2,
                    "axis" : 2
                }
            },
            "name" : "Scene",
            "nodes" : [
                0,
                1,
                2,
                3,
                4,
                5,
                6,
                7,
                8,
                9,
                10,
                11,
                12,
                13,
                14,
                15,
                16
            ]
        }
    ],
    "nodes" : [
        {
            "extras" : {
                "MM" : {},
                "DM" : {}
            },
            "name" : "Elevator Placeholder Main",
            "scale" : [
                1.2999999523162842,
                1.7000000476837158,
                1.5
            ],
            "translation" : [
                0,
                1.7000000476837158,
                0
            ]
        },
        {
            "extras" : {
                "MM" : {},
                "DM" : {}
            },
            "name" : "Elevator Placeholder Opening",
            "scale" : [
                0.550000011920929,
                1.2000000476837158,
                0.6000000238418579
            ],
            "translation" : [
                0,
                1.2000000476837158,
                0.8999999761581421
            ]
        },
        {
            "extras" : {
                "MM" : {},
                "DM" : {}
            },
            "mesh" : 0,
            "name" : "Baked Chairs",
            "rotation" : [
                0.4067225456237793,
                0.008551258593797684,
                -0.9134461283683777,
                0.010946148075163364
            ],
            "translation" : [
                0.5436278581619263,
                0.2743058204650879,
                86.47056579589844
            ]
        },
        {
            "extras" : {
                "MM" : {},
                "DM" : {}
            },
            "mesh" : 1,
            "name" : "COLLIDER Floor",
            "translation" : [
                0.05058872699737549,
                -1.855257511138916,
                29.831344604492188
            ]
        },
        {
            "extras" : {
                "MM" : {},
                "DM" : {}
            },
            "mesh" : 2,
            "name" : "Plane",
            "rotation" : [
                0.7071068286895752,
                0,
                0,
                0.7071068286895752
            ],
            "translation" : [
                1.3825409412384033,
                -16.435997009277344,
                215.9423065185547
            ]
        },
        {
            "extras" : {
                "MM" : {},
                "DM" : {}
            },
            "name" : "BLOCK.003",
            "rotation" : [
                0,
                0.7071068286895752,
                0,
                0.7071068286895752
            ],
            "scale" : [
                1.236153244972229,
                5.555863857269287,
                15.905345916748047
            ],
            "translation" : [
                -0.5821338891983032,
                1.787130355834961,
                130.3733673095703
            ]
        },
        {
            "extras" : {
                "MM" : {},
                "DM" : {}
            },
            "name" : "BLOCK.005",
            "scale" : [
                1.236153244972229,
                5.555863857269287,
                15.905345916748047
            ],
            "translation" : [
                14.44287109375,
                1.8082008361816406,
                121.74104309082031
            ]
        },
        {
            "extras" : {
                "MM" : {},
                "DM" : {}
            },
            "name" : "BLOCK.007",
            "scale" : [
                1.236153244972229,
                5.555863857269287,
                15.905345916748047
            ],
            "translation" : [
                14.44287109375,
                0.9347553253173828,
                60.1939582824707
            ]
        },
        {
            "extras" : {
                "MM" : {},
                "DM" : {}
            },
            "name" : "BLOCK.008",
            "scale" : [
                1.236153244972229,
                5.555863857269287,
                15.905345916748047
            ],
            "translation" : [
                14.44287109375,
                0.9347553253173828,
                29.10532569885254
            ]
        },
        {
            "extras" : {
                "MM" : {},
                "DM" : {}
            },
            "name" : "BLOCK.009",
            "scale" : [
                1.236153244972229,
                5.555863857269287,
                15.905345916748047
            ],
            "translation" : [
                14.44287109375,
                0.9347553253173828,
                2.2178611755371094
            ]
        },
        {
            "extras" : {
                "MM" : {},
                "DM" : {}
            },
            "name" : "BLOCK.010",
            "rotation" : [
                0,
                -0.7071068286895752,
                0,
                0.7071068286895752
            ],
            "scale" : [
                1.236153244972229,
                5.555863857269287,
                15.905345916748047
            ],
            "translation" : [
                -0.4712705612182617,
                0.9347553253173828,
                -10.175580024719238
            ]
        },
        {
            "extras" : {
                "MM" : {},
                "DM" : {}
            },
            "name" : "BLOCK.016",
            "scale" : [
                1.236153244972229,
                5.555863857269287,
                15.905345916748047
            ],
            "translation" : [
                -14.398183822631836,
                0.9347553253173828,
                60.919921875
            ]
        },
        {
            "extras" : {
                "MM" : {},
                "DM" : {}
            },
            "name" : "BLOCK.017",
            "scale" : [
                1.236153244972229,
                5.555863857269287,
                15.905345916748047
            ],
            "translation" : [
                -14.595602035522461,
                0.9347553253173828,
                29.831287384033203
            ]
        },
        {
            "extras" : {
                "MM" : {},
                "DM" : {}
            },
            "name" : "BLOCK.018",
            "scale" : [
                1.236153244972229,
                5.555863857269287,
                15.905345916748047
            ],
            "translation" : [
                -14.595602035522461,
                0.9347553253173828,
                2.9438228607177734
            ]
        },
        {
            "extras" : {
                "MM" : {},
                "DM" : {}
            },
            "name" : "BLOCK.019",
            "scale" : [
                1.236153244972229,
                5.555863857269287,
                15.905345916748047
            ],
            "translation" : [
                14.48306655883789,
                1.3272590637207031,
                91.85491180419922
            ]
        },
        {
            "extras" : {
                "MM" : {},
                "DM" : {}
            },
            "name" : "BLOCK.006",
            "scale" : [
                1.236153244972229,
                5.555863857269287,
                15.905345916748047
            ],
            "translation" : [
                -14.398183822631836,
                0.9347553253173828,
                91.71715545654297
            ]
        },
        {
            "extras" : {
                "MM" : {},
                "DM" : {}
            },
            "name" : "BLOCK.014",
            "scale" : [
                1.236153244972229,
                5.555863857269287,
                15.905345916748047
            ],
            "translation" : [
                -14.496892929077148,
                0.9347553253173828,
                114.91378784179688
            ]
        }
    ],
    "materials" : [
        {
            "doubleSided" : true,
            "emissiveFactor" : [
                1,
                1,
                1
            ],
            "extras" : {
                "DM" : {}
            },
            "name" : "Dining Chair.001",
            "pbrMetallicRoughness" : {
                "baseColorFactor" : [
                    0,
                    0,
                    0,
                    1
                ]
            }
        },
        {
            "doubleSided" : true,
            "emissiveFactor" : [
                1,
                1,
                1
            ],
            "emissiveTexture" : {
                "index" : 0
            },
            "extras" : {
                "DM" : {}
            },
            "name" : "COLLIDER Floor",
            "pbrMetallicRoughness" : {
                "baseColorFactor" : [
                    0,
                    0,
                    0,
                    1
                ]
            }
        },
        {
            "doubleSided" : true,
            "emissiveFactor" : [
                1,
                1,
                1
            ],
            "name" : "Material",
            "pbrMetallicRoughness" : {
                "baseColorFactor" : [
                    0.800000011920929,
                    0.800000011920929,
                    0.800000011920929,
                    1
                ],
                "metallicFactor" : 0,
                "roughnessFactor" : 0.5
            }
        }
    ],
    "meshes" : [
        {
            "name" : "Cube.025",
            "primitives" : [
                {
                    "attributes" : {
                        "POSITION" : 0,
                        "NORMAL" : 1,
                        "TEXCOORD_0" : 2,
                        "COLOR_0" : 3
                    },
                    "indices" : 4,
                    "material" : 0
                }
            ]
        },
        {
            "name" : "Cube.018",
            "primitives" : [
                {
                    "attributes" : {
                        "POSITION" : 5,
                        "NORMAL" : 6,
                        "TEXCOORD_0" : 7
                    },
                    "indices" : 8,
                    "material" : 1
                }
            ]
        },
        {
            "name" : "Plane",
            "primitives" : [
                {
                    "attributes" : {
                        "POSITION" : 9,
                        "NORMAL" : 10,
                        "TEXCOORD_0" : 11
                    },
                    "indices" : 12,
                    "material" : 2
                }
            ]
        }
    ],
    "textures" : [
        {
            "sampler" : 0,
            "source" : 0
        }
    ],
    "images" : [
        {
            "mimeType" : "image/png",
            "name" : "ARCH TEX JOIN UNWRAP Chairs Pile Cave Floor_COMBINED_bake",
            "uri" : "ARCH%20TEX%20JOIN%20UNWRAP%20Chairs%20Pile%20Cave%20Floor_COMBINED_bake.png"
        }
    ],
    "accessors" : [
        {
            "bufferView" : 0,
            "componentType" : 5126,
            "count" : 359736,
            "max" : [
                33.9345703125,
                3.03820538520813,
                48.34961700439453
            ],
            "min" : [
                -62.459266662597656,
                -4.282546520233154,
                -27.409542083740234
            ],
            "type" : "VEC3"
        },
        {
            "bufferView" : 1,
            "componentType" : 5126,
            "count" : 359736,
            "type" : "VEC3"
        },
        {
            "bufferView" : 2,
            "componentType" : 5126,
            "count" : 359736,
            "type" : "VEC2"
        },
        {
            "bufferView" : 3,
            "componentType" : 5123,
            "count" : 359736,
            "normalized" : true,
            "type" : "VEC4"
        },
        {
            "bufferView" : 4,
            "componentType" : 5125,
            "count" : 551796,
            "type" : "SCALAR"
        },
        {
            "bufferView" : 5,
            "componentType" : 5126,
            "count" : 28,
            "max" : [
                13.317435264587402,
                200.97555541992188,
                118.51815032958984
            ],
            "min" : [
                -13.317435264587402,
                -1.8403135538101196,
                -39.525550842285156
            ],
            "type" : "VEC3"
        },
        {
            "bufferView" : 6,
            "componentType" : 5126,
            "count" : 28,
            "type" : "VEC3"
        },
        {
            "bufferView" : 7,
            "componentType" : 5126,
            "count" : 28,
            "type" : "VEC2"
        },
        {
            "bufferView" : 8,
            "componentType" : 5123,
            "count" : 42,
            "type" : "SCALAR"
        },
        {
            "bufferView" : 9,
            "componentType" : 5126,
            "count" : 4,
            "max" : [
                2.5966930389404297,
                0,
                91.32941436767578
            ],
            "min" : [
                -2.5966930389404297,
                0,
                -91.32941436767578
            ],
            "type" : "VEC3"
        },
        {
            "bufferView" : 10,
            "componentType" : 5126,
            "count" : 4,
            "type" : "VEC3"
        },
        {
            "bufferView" : 11,
            "componentType" : 5126,
            "count" : 4,
            "type" : "VEC2"
        },
        {
            "bufferView" : 12,
            "componentType" : 5123,
            "count" : 6,
            "type" : "SCALAR"
        }
    ],
    "bufferViews" : [
        {
            "buffer" : 0,
            "byteLength" : 4316832,
            "byteOffset" : 0
        },
        {
            "buffer" : 0,
            "byteLength" : 4316832,
            "byteOffset" : 4316832
        },
        {
            "buffer" : 0,
            "byteLength" : 2877888,
            "byteOffset" : 8633664
        },
        {
            "buffer" : 0,
            "byteLength" : 2877888,
            "byteOffset" : 11511552
        },
        {
            "buffer" : 0,
            "byteLength" : 2207184,
            "byteOffset" : 14389440
        },
        {
            "buffer" : 0,
            "byteLength" : 336,
            "byteOffset" : 16596624
        },
        {
            "buffer" : 0,
            "byteLength" : 336,
            "byteOffset" : 16596960
        },
        {
            "buffer" : 0,
            "byteLength" : 224,
            "byteOffset" : 16597296
        },
        {
            "buffer" : 0,
            "byteLength" : 84,
            "byteOffset" : 16597520
        },
        {
            "buffer" : 0,
            "byteLength" : 48,
            "byteOffset" : 16597604
        },
        {
            "buffer" : 0,
            "byteLength" : 48,
            "byteOffset" : 16597652
        },
        {
            "buffer" : 0,
            "byteLength" : 32,
            "byteOffset" : 16597700
        },
        {
            "buffer" : 0,
            "byteLength" : 12,
            "byteOffset" : 16597732
        }
    ],
    "samplers" : [
        {
            "magFilter" : 9729,
            "minFilter" : 9987
        }
    ],
    "buffers" : [
        {
            "byteLength" : 16597744,
            "uri" : "Level 4 Chairs Pile Export.bin"
        }
    ]
}
